# xmcd
#
# Track frame offsets: 
#        150
#        27287
#        43075
#        67672
#        85320
#        102822
#        127885
#        149515
#        172977
#        195390
#        211892
#        226037
#        245690
#        267087
#
# Disc length: 3816 seconds
#
# Revision: 0
# Processed by: cddbd v1.4PL0 Copyright (c) Steve Scherf et al.
# Submitted via: ExactAudioCopy v0.90b4
#
DISCID=b30ee60e
DTITLE=Eddie Taylor Blues Band - My Heart Is Bleeding
DYEAR=1994
DGENRE=Blues
TTITLE0=My Heart Is Bleeding
TTITLE1=Going to Virginia
TTITLE2=So Bad
TTITLE3=Lexington Breakdown
TTITLE4=Blow Wind Blow
TTITLE5=Wreck on 83 Highway
TTITLE6=Soul Brother
TTITLE7=There'll Be a Day
TTITLE8=Lawndale Blues
TTITLE9=Gamblin' Woman [*]
TTITLE10=I Got a Little Thing They Call It Swing [*]
TTITLE11=One Day I Get Lucky [*]
TTITLE12=Dust My Broom [*]
TTITLE13=There'll Be a Day [*]
EXTD=
EXTT0=
EXTT1=
EXTT2=
EXTT3=
EXTT4=
EXTT5=
EXTT6=
EXTT7=
EXTT8=
EXTT9=
EXTT10=
EXTT11=
EXTT12=
EXTT13=
PLAYORDER=
